<svg xmlns="http://www.w3.org/2000/svg" width="1em" height="1em" viewBox="0 0 24 24"><path fill="currentColor" d="M7.502 0h2.578v1.078h-1.5v1.078h1.5v1.078H7.502zm3.093 0h2.579v.938h-1.5v.187h1.5v2.156h-2.579v-.984h1.5v-.188h-1.5zm3.095 0h2.577v.938h-1.5v.187h1.5v2.156H13.69v-.984h1.5v-.188h-1.5z"/><path fill="currentColor" fill-rule="evenodd" d="m11.991 24l-6.944-1.928L3 4.717h18L18.954 22.07zM7.047 12.573l.191 2.128h7.377l-.247 2.76l-2.374.642h-.002l-2.37-.64l-.152-1.697H7.333l.298 3.342l4.36 1.21l4.367-1.21l.532-5.964l.052-.571l.384-4.309H6.664l.194 2.129h8.136l-.194 2.18z" clip-rule="evenodd"/></svg>